<svg xmlns="http://www.w3.org/2000/svg" viewBox="0 0 512 512"><path d="M400.764 402.012l-18.14-108.59h-.053c-2.517-14.685-12.612-29.89-29.8-34.703-.21-.06-.423-.108-.64-.14l-42.324-6.35c-.26-.04-.812-.06-1.077-.06-2.678 0-4.936 1.996-5.26 4.655-2.255 18.298-17.384 32.665-36.85 36.595h-21.243c-19.47-3.93-34.6-18.294-36.847-36.594-.333-2.736-2.797-4.794-5.397-4.652-.31-.018-.616.008-.942.057l-42.32 6.353c-.218.03-.43.078-.643.137-17.188 4.81-27.283 20.018-29.8 34.7h-.054l-18.14 108.592C107.48 421.732 122.597 440 142.67 440h226.66c20.073 0 35.19-18.27 31.434-37.988z" fill="#FF4F19"/><path d="M256 246.87c-18.52 0-35.322-7.947-47.72-20.79-.008 7.697-.288 18.807-2.33 26.914 1.34.818 2.38 2.162 2.58 3.833 2.647 21.53 23.052 37.76 47.47 37.76 24.413 0 44.818-16.234 47.47-37.76.205-1.674 1.22-3.015 2.58-3.83-2.04-8.108-2.322-19.22-2.33-26.918-12.398 12.842-29.2 20.79-47.72 20.79z" fill="#FDC88E"/><path d="M302.684 227.056C290.39 239.3 274.024 246.87 256 246.87c-18.52 0-35.322-7.947-47.72-20.79-.008 7.697-.288 18.807-2.33 26.914 1.34.818 2.38 2.162 2.58 3.833 1.17 9.516 5.818 17.99 12.74 24.49 31.924-4.495 68.156-36.017 81.414-54.26z" fill="#FFB980"/><path d="M303.717 114.32h-90.133c-14.617 0-26.51 11.894-26.51 26.51v31.813c0 40.93 30.92 74.227 68.925 74.227s68.923-33.298 68.923-74.227V135.53c0-11.695-9.51-21.21-21.207-21.21z" fill="#FFE1B2"/><path d="M293.113 56h-68.925c-9.972 0-18.355 6.917-20.612 16.204-18.25 2.32-32.407 17.946-32.407 36.816v26.51c0 13.664 5.8 26.41 15.904 35.47v-30.168c0-14.617 11.893-26.51 26.51-26.51h90.133c11.696 0 21.208 9.514 21.208 21.208v35.464c10.107-9.057 15.906-21.804 15.906-35.464v-31.812c0-26.31-21.405-47.718-47.72-47.718z" fill="#7E5449"/><path d="M352 440H160c-4.418 0-8-3.582-8-8V328c0-4.418 3.582-8 8-8h192c4.418 0 8 3.582 8 8v104c0 4.418-3.582 8-8 8z" fill="#D8DCE1"/><path d="M504 456H8c-4.422 0-8-3.582-8-8s3.578-8 8-8h496c4.422 0 8 3.582 8 8s-3.578 8-8 8z" fill="#9F6459"/><circle cx="256" cy="384" r="16" fill="#FFF"/></svg>